<mxfile host="app.diagrams.net" modified="2023-10-04T23:05:24.925Z" agent="Mozilla/5.0 (Windows NT 10.0; Win64; x64) AppleWebKit/537.36 (KHTML, like Gecko) Chrome/117.0.0.0 Safari/537.36 Edg/117.0.2045.47" etag="l8nm6FJxLsmggtXw8zgN" version="22.0.2" type="device">
  <diagram name="Page-1" id="e7e014a7-5840-1c2e-5031-d8a46d1fe8dd">
    <mxGraphModel dx="2451" dy="569" grid="0" gridSize="10" guides="1" tooltips="1" connect="1" arrows="1" fold="1" page="1" pageScale="1" pageWidth="1169" pageHeight="826" background="none" math="0" shadow="0">
      <root>
        <mxCell id="0" />
        <mxCell id="1" parent="0" />
        <mxCell id="tGdlwRBx1bDIZQyUGaqJ-41" value="&lt;p style=&quot;margin:0px;margin-top:4px;text-align:center;&quot;&gt;&lt;br&gt;&lt;b&gt;Animals&lt;/b&gt;&lt;/p&gt;" style="verticalAlign=top;align=left;overflow=fill;fontSize=12;fontFamily=Helvetica;html=1;strokeColor=#000000;backgroundOutline=0;labelBackgroundColor=none;fontColor=#000000;shadow=1;labelBorderColor=#000000;" parent="1" vertex="1">
          <mxGeometry x="330" y="290" width="140" height="60" as="geometry" />
        </mxCell>
        <mxCell id="tGdlwRBx1bDIZQyUGaqJ-42" value="&lt;p style=&quot;margin:0px;margin-top:4px;text-align:center;&quot;&gt;&lt;br&gt;&lt;b&gt;Pets&lt;/b&gt;&lt;/p&gt;" style="verticalAlign=top;align=left;overflow=fill;fontSize=12;fontFamily=Helvetica;html=1;strokeColor=#000000;backgroundOutline=0;labelBackgroundColor=none;fontColor=#000000;shadow=1;labelBorderColor=#000000;" parent="1" vertex="1">
          <mxGeometry x="100" y="400" width="140" height="60" as="geometry" />
        </mxCell>
        <mxCell id="tGdlwRBx1bDIZQyUGaqJ-43" value="&lt;p style=&quot;margin:0px;margin-top:4px;text-align:center;&quot;&gt;&lt;br&gt;&lt;b&gt;Pack animals&lt;/b&gt;&lt;/p&gt;" style="verticalAlign=top;align=left;overflow=fill;fontSize=12;fontFamily=Helvetica;html=1;strokeColor=#000000;backgroundOutline=0;labelBackgroundColor=none;fontColor=#000000;shadow=1;labelBorderColor=#000000;" parent="1" vertex="1">
          <mxGeometry x="600" y="400" width="140" height="60" as="geometry" />
        </mxCell>
        <mxCell id="tGdlwRBx1bDIZQyUGaqJ-44" value="&lt;p style=&quot;margin:0px;margin-top:4px;text-align:center;&quot;&gt;&lt;br&gt;&lt;b&gt;Dogs&lt;/b&gt;&lt;/p&gt;" style="verticalAlign=top;align=left;overflow=fill;fontSize=12;fontFamily=Helvetica;html=1;strokeColor=#000000;backgroundOutline=0;labelBackgroundColor=none;fontColor=#000000;shadow=1;labelBorderColor=#000000;" parent="1" vertex="1">
          <mxGeometry x="70" y="512" width="140" height="60" as="geometry" />
        </mxCell>
        <mxCell id="tGdlwRBx1bDIZQyUGaqJ-45" value="&lt;p style=&quot;margin:0px;margin-top:4px;text-align:center;&quot;&gt;&lt;br&gt;&lt;b&gt;Cats&lt;/b&gt;&lt;/p&gt;" style="verticalAlign=top;align=left;overflow=fill;fontSize=12;fontFamily=Helvetica;html=1;strokeColor=#000000;backgroundOutline=0;labelBackgroundColor=none;fontColor=#000000;shadow=1;labelBorderColor=#000000;" parent="1" vertex="1">
          <mxGeometry x="40" y="600" width="140" height="60" as="geometry" />
        </mxCell>
        <mxCell id="tGdlwRBx1bDIZQyUGaqJ-46" value="&lt;p style=&quot;margin:0px;margin-top:4px;text-align:center;&quot;&gt;&lt;br&gt;&lt;b&gt;Hamsters&lt;/b&gt;&lt;/p&gt;" style="verticalAlign=top;align=left;overflow=fill;fontSize=12;fontFamily=Helvetica;html=1;strokeColor=#000000;backgroundOutline=0;labelBackgroundColor=none;fontColor=#000000;shadow=1;labelBorderColor=#000000;" parent="1" vertex="1">
          <mxGeometry x="10" y="710" width="140" height="60" as="geometry" />
        </mxCell>
        <mxCell id="tGdlwRBx1bDIZQyUGaqJ-47" value="&lt;p style=&quot;margin:0px;margin-top:4px;text-align:center;&quot;&gt;&lt;br&gt;&lt;b&gt;Horses&lt;/b&gt;&lt;/p&gt;" style="verticalAlign=top;align=left;overflow=fill;fontSize=12;fontFamily=Helvetica;html=1;strokeColor=#000000;backgroundOutline=0;labelBackgroundColor=none;fontColor=#000000;shadow=1;labelBorderColor=#000000;" parent="1" vertex="1">
          <mxGeometry x="540" y="515" width="140" height="60" as="geometry" />
        </mxCell>
        <mxCell id="tGdlwRBx1bDIZQyUGaqJ-48" value="&lt;p style=&quot;margin:0px;margin-top:4px;text-align:center;&quot;&gt;&lt;br&gt;&lt;b&gt;Camels&lt;/b&gt;&lt;/p&gt;" style="verticalAlign=top;align=left;overflow=fill;fontSize=12;fontFamily=Helvetica;html=1;strokeColor=#000000;backgroundOutline=0;labelBackgroundColor=none;fontColor=#000000;shadow=1;labelBorderColor=#000000;" parent="1" vertex="1">
          <mxGeometry x="490" y="600" width="140" height="60" as="geometry" />
        </mxCell>
        <mxCell id="tGdlwRBx1bDIZQyUGaqJ-50" value="&lt;p style=&quot;margin:0px;margin-top:4px;text-align:center;&quot;&gt;&lt;br&gt;&lt;b&gt;Donkeys&lt;/b&gt;&lt;/p&gt;" style="verticalAlign=top;align=left;overflow=fill;fontSize=12;fontFamily=Helvetica;html=1;strokeColor=#000000;backgroundOutline=0;labelBackgroundColor=none;fontColor=#000000;shadow=1;labelBorderColor=#000000;" parent="1" vertex="1">
          <mxGeometry x="460" y="720" width="140" height="60" as="geometry" />
        </mxCell>
        <mxCell id="tGdlwRBx1bDIZQyUGaqJ-51" value="Extends" style="endArrow=block;endSize=16;endFill=0;html=1;rounded=0;entryX=0.5;entryY=1;entryDx=0;entryDy=0;exitX=1;exitY=0.5;exitDx=0;exitDy=0;strokeColor=#000000;backgroundOutline=0;labelBackgroundColor=none;fontColor=#000000;shadow=1;labelBorderColor=#000000;" parent="1" source="tGdlwRBx1bDIZQyUGaqJ-42" target="tGdlwRBx1bDIZQyUGaqJ-41" edge="1">
          <mxGeometry width="160" relative="1" as="geometry">
            <mxPoint x="270" y="560" as="sourcePoint" />
            <mxPoint x="430" y="560" as="targetPoint" />
          </mxGeometry>
        </mxCell>
        <mxCell id="tGdlwRBx1bDIZQyUGaqJ-52" value="Extends" style="endArrow=block;endSize=16;endFill=0;html=1;rounded=0;entryX=0.686;entryY=1.006;entryDx=0;entryDy=0;entryPerimeter=0;exitX=0;exitY=0.5;exitDx=0;exitDy=0;strokeColor=#000000;backgroundOutline=0;labelBackgroundColor=none;fontColor=#000000;shadow=1;labelBorderColor=#000000;" parent="1" source="tGdlwRBx1bDIZQyUGaqJ-43" target="tGdlwRBx1bDIZQyUGaqJ-41" edge="1">
          <mxGeometry width="160" relative="1" as="geometry">
            <mxPoint x="270" y="560" as="sourcePoint" />
            <mxPoint x="430" y="560" as="targetPoint" />
          </mxGeometry>
        </mxCell>
        <mxCell id="tGdlwRBx1bDIZQyUGaqJ-53" value="Extends" style="endArrow=block;endSize=16;endFill=0;html=1;rounded=0;exitX=0.41;exitY=0.028;exitDx=0;exitDy=0;exitPerimeter=0;entryX=0.188;entryY=0.994;entryDx=0;entryDy=0;entryPerimeter=0;strokeColor=#000000;backgroundOutline=0;labelBackgroundColor=none;fontColor=#000000;shadow=1;labelBorderColor=#000000;" parent="1" source="tGdlwRBx1bDIZQyUGaqJ-44" target="tGdlwRBx1bDIZQyUGaqJ-42" edge="1">
          <mxGeometry width="160" relative="1" as="geometry">
            <mxPoint x="270" y="560" as="sourcePoint" />
            <mxPoint x="430" y="560" as="targetPoint" />
          </mxGeometry>
        </mxCell>
        <mxCell id="tGdlwRBx1bDIZQyUGaqJ-54" value="Extends" style="endArrow=block;endSize=16;endFill=0;html=1;rounded=0;exitX=0;exitY=0;exitDx=0;exitDy=0;entryX=0;entryY=0.75;entryDx=0;entryDy=0;strokeColor=#000000;backgroundOutline=0;labelBackgroundColor=none;fontColor=#000000;shadow=1;labelBorderColor=#000000;" parent="1" source="tGdlwRBx1bDIZQyUGaqJ-45" target="tGdlwRBx1bDIZQyUGaqJ-42" edge="1">
          <mxGeometry x="-0.2398" y="3" width="160" relative="1" as="geometry">
            <mxPoint x="270" y="560" as="sourcePoint" />
            <mxPoint x="430" y="560" as="targetPoint" />
            <Array as="points">
              <mxPoint x="40" y="445" />
            </Array>
            <mxPoint as="offset" />
          </mxGeometry>
        </mxCell>
        <mxCell id="tGdlwRBx1bDIZQyUGaqJ-55" value="Extends" style="endArrow=block;endSize=16;endFill=0;html=1;rounded=0;exitX=0;exitY=0;exitDx=0;exitDy=0;entryX=-0.031;entryY=0.383;entryDx=0;entryDy=0;entryPerimeter=0;strokeColor=#000000;backgroundOutline=0;labelBackgroundColor=none;fontColor=#000000;shadow=1;labelBorderColor=#000000;" parent="1" source="tGdlwRBx1bDIZQyUGaqJ-46" target="tGdlwRBx1bDIZQyUGaqJ-42" edge="1">
          <mxGeometry x="-0.4096" width="160" relative="1" as="geometry">
            <mxPoint x="270" y="560" as="sourcePoint" />
            <mxPoint x="430" y="560" as="targetPoint" />
            <Array as="points">
              <mxPoint x="10" y="423" />
            </Array>
            <mxPoint as="offset" />
          </mxGeometry>
        </mxCell>
        <mxCell id="tGdlwRBx1bDIZQyUGaqJ-56" value="Extends" style="endArrow=block;endSize=16;endFill=0;html=1;rounded=0;entryX=0.455;entryY=1.006;entryDx=0;entryDy=0;entryPerimeter=0;exitX=0.883;exitY=-0.006;exitDx=0;exitDy=0;exitPerimeter=0;strokeColor=#000000;backgroundOutline=0;labelBackgroundColor=none;fontColor=#000000;shadow=1;labelBorderColor=#000000;" parent="1" source="tGdlwRBx1bDIZQyUGaqJ-47" target="tGdlwRBx1bDIZQyUGaqJ-43" edge="1">
          <mxGeometry width="160" relative="1" as="geometry">
            <mxPoint x="270" y="560" as="sourcePoint" />
            <mxPoint x="430" y="560" as="targetPoint" />
          </mxGeometry>
        </mxCell>
        <mxCell id="tGdlwRBx1bDIZQyUGaqJ-57" value="Extends" style="endArrow=block;endSize=16;endFill=0;html=1;rounded=0;entryX=0.75;entryY=1;entryDx=0;entryDy=0;exitX=1;exitY=0.5;exitDx=0;exitDy=0;strokeColor=#000000;backgroundOutline=0;labelBackgroundColor=none;fontColor=#000000;shadow=1;labelBorderColor=#000000;" parent="1" source="tGdlwRBx1bDIZQyUGaqJ-48" target="tGdlwRBx1bDIZQyUGaqJ-43" edge="1">
          <mxGeometry width="160" relative="1" as="geometry">
            <mxPoint x="280" y="560" as="sourcePoint" />
            <mxPoint x="440" y="560" as="targetPoint" />
            <Array as="points">
              <mxPoint x="705" y="630" />
            </Array>
          </mxGeometry>
        </mxCell>
        <mxCell id="tGdlwRBx1bDIZQyUGaqJ-58" value="Extends" style="endArrow=block;endSize=16;endFill=0;html=1;rounded=0;entryX=1;entryY=1;entryDx=0;entryDy=0;exitX=1;exitY=0.5;exitDx=0;exitDy=0;strokeColor=#000000;backgroundOutline=0;labelBackgroundColor=none;fontColor=#000000;shadow=1;labelBorderColor=#000000;" parent="1" source="tGdlwRBx1bDIZQyUGaqJ-50" target="tGdlwRBx1bDIZQyUGaqJ-43" edge="1">
          <mxGeometry width="160" relative="1" as="geometry">
            <mxPoint x="280" y="660" as="sourcePoint" />
            <mxPoint x="440" y="660" as="targetPoint" />
            <Array as="points">
              <mxPoint x="740" y="750" />
            </Array>
          </mxGeometry>
        </mxCell>
      </root>
    </mxGraphModel>
  </diagram>
</mxfile>
